<svg xmlns="http://www.w3.org/2000/svg" viewBox="0 0 1600 900" font-family="system-ui,Segoe UI,Helvetica,Arial,sans-serif"><defs><radialGradient id="a" cx="18%" cy="20%" r="70%"><stop offset="0" stop-color="#00d4ff" stop-opacity=".42"/><stop offset="1" stop-color="#00d4ff" stop-opacity="0"/></radialGradient><radialGradient id="b" cx="90%" cy="95%" r="60%"><stop offset="0" stop-color="#00d4ff" stop-opacity=".22"/><stop offset="1" stop-color="#00d4ff" stop-opacity="0"/></radialGradient></defs><rect width="1600" height="900" fill="#060a16"/><rect width="1600" height="900" fill="url(#a)"/><rect width="1600" height="900" fill="url(#b)"/><rect x="60" y="60" width="1480" height="780" rx="28" fill="none" stroke="#fff" stroke-opacity=".1"/><circle cx="112" cy="112" r="9" fill="#ff5f57"/><circle cx="142" cy="112" r="9" fill="#ffbd2e"/><circle cx="172" cy="112" r="9" fill="#28ca42"/><text x="1490" y="120" text-anchor="end" font-size="24" fill="#8791a7" font-family="ui-monospace,monospace">focus-sigma-ruby.vercel.app</text><text x="120" y="480" font-size="150" font-weight="700" fill="#fff" letter-spacing="-4">Study Tracker</text><text x="120" y="570" font-size="34" fill="#00d4ff" font-family="ui-monospace,monospace">Live on Vercel</text><rect x="120" y="700" width="197" height="52" rx="26" fill="none" stroke="#00d4ff" stroke-opacity=".5"/><text x="218.5" y="734" text-anchor="middle" font-size="24" fill="#c9d3e6">Dashboard</text><rect x="331" y="700" width="248" height="52" rx="26" fill="none" stroke="#00d4ff" stroke-opacity=".5"/><text x="455.0" y="734" text-anchor="middle" font-size="24" fill="#c9d3e6">Productivity</text><rect x="593" y="700" width="214" height="52" rx="26" fill="none" stroke="#00d4ff" stroke-opacity=".5"/><text x="700.0" y="734" text-anchor="middle" font-size="24" fill="#c9d3e6">JavaScript</text><rect x="821" y="700" width="146" height="52" rx="26" fill="none" stroke="#00d4ff" stroke-opacity=".5"/><text x="894.0" y="734" text-anchor="middle" font-size="24" fill="#c9d3e6">Vercel</text></svg>